<?xml version="1.0" encoding="UTF-8"?>
<svg width="24px" height="18px" viewBox="0 0 24 18" version="1.1" xmlns="http://www.w3.org/2000/svg" xmlns:xlink="http://www.w3.org/1999/xlink">
    <title>形状结合</title>
    <g id="SaaS-V1.1.0" stroke="none" stroke-width="1" fill="none" fill-rule="evenodd">
        <path d="M10.197573,10.7237396 C10.3896334,10.9624453 10.6104849,11.235175 10.8442119,11.5245586 C11.1539405,11.9075979 11.4858436,12.3171402 11.800937,12.7060889 C10.9184252,13.7961124 10.0191036,14.9024317 9.89303043,15.0591214 C9.64607017,15.3648008 9.41037602,15.6851642 9.14177768,15.9715035 C8.62282136,16.5228724 8.0006818,16.9854206 7.32310582,17.322796 C6.6392709,17.6630366 5.89445592,17.8750602 5.13336768,17.9407804 C4.3608345,18.0081122 3.58472478,17.9149937 2.86476677,17.6175518 C2.1984569,17.3426732 1.60099548,16.908956 1.13068014,16.3618849 C0.657503568,15.8110532 0.317910858,15.1484794 0.147667435,14.4418533 C-0.035451541,13.6806097 -0.0207877168,12.8726278 0.190228291,12.1185471 C0.242088157,11.9339218 0.304856478,11.7530571 0.379427389,11.5773855 C0.492624959,11.3077 0.633183079,11.0491171 0.79609459,10.8062928 C1.34366325,11.4445125 2.05163983,11.9410848 2.83865801,12.2356615 C2.36566026,12.9811466 2.41805661,13.9864681 2.97063243,14.6753658 C4.69631418,16.4156071 6.81630975,14.9387837 7.71420074,13.8111547 C7.8154169,13.6827586 9.08348004,12.1072654 10.197573,10.7237396 Z M2.84423742,3.28633042 C3.56383777,2.98853034 4.34048397,2.89612815 5.11319598,2.96274368 C5.87392657,3.02918014 6.6190992,3.24048747 7.30275529,3.58144439 C7.9805101,3.91810352 8.60282849,4.38065169 9.12160598,4.93273686 C9.39020432,5.21835991 9.62554082,5.53926054 9.87250108,5.84493987 C10.009125,6.01398574 12.0051934,8.47159745 12.0059087,8.47088115 C12.0862021,8.57062538 16.1418224,13.6035004 16.3068799,13.8110472 C17.2040555,14.9388553 19.3242299,16.4156787 21.0500905,14.6752584 C21.601951,13.9865397 21.654705,12.9810392 21.1815285,12.2355541 C21.9687255,11.9411564 22.676702,11.4444051 23.2246284,10.8063644 C23.3871822,11.0490097 23.5277403,11.3077716 23.6407591,11.5774571 C23.71533,11.7531287 23.7786348,11.9339934 23.830137,12.1186187 C24.041153,12.8726994 24.0558168,13.6806813 23.8730555,14.4419249 C23.7031697,15.148551 23.3628617,15.8111248 22.8896852,16.3617774 C22.4197275,16.9090276 21.8219084,17.3427448 21.1557774,17.6176234 C20.4359982,17.9148863 19.6595308,18.0081839 18.8868188,17.940852 C18.1259094,17.8751319 17.3807367,17.6631082 16.6972595,17.3228676 C16.0196835,16.9854922 15.3975439,16.522944 14.8785876,15.9715751 C14.6098104,15.6852358 14.3742951,15.3648724 14.1276925,15.0591931 C13.9908898,14.889789 7.85837117,7.30027435 7.69367139,7.09308572 C6.79613805,5.96474038 4.67578483,4.48845425 2.95046073,6.22833733 C2.39788491,6.91759319 2.34548857,7.92237746 2.81848631,8.66786257 C2.81848631,8.66786257 3.3622996,9.57308169 4.61301651,10.4390836 C3.7914847,11.0076436 3.53433129,11.2680172 2.9456324,12.0378564 C1.48282651,11.2680172 0.775565236,10.0974104 0.775565236,10.0974104 C0.612832552,9.85440696 0.472453259,9.59618223 0.359076862,9.32667585 C0.284684778,9.15046702 0.22173763,8.96960227 0.169877764,8.78515604 C-0.0409594165,8.03107539 -0.0558020679,7.22291438 0.127138081,6.46184984 C0.29702385,5.75468657 0.636974214,5.09247088 1.11086609,4.54163923 C1.58082378,3.99456813 2.17792755,3.56102995 2.84423742,3.28633042 Z M18.8666113,2.96267205 C19.6393233,2.89605652 20.4154331,2.98845871 21.1353911,3.28625879 C21.8013433,3.56113739 22.3991623,3.9944965 22.86912,4.5415676 C23.3426543,5.09239925 23.6826046,5.75461494 23.852848,6.46177821 C24.0356094,7.22284275 24.0209455,8.03118283 23.8099295,8.78526349 C23.7580697,8.96953064 23.6947649,9.15039539 23.6209093,9.32678329 C23.507354,9.5961106 23.3669747,9.8545144 23.2044209,10.0973388 C23.2044209,10.0973388 22.496802,11.2679456 21.0338173,12.0377847 C20.4451184,11.2679456 20.1883226,11.007572 19.3662543,10.439012 C20.6171501,9.57318913 21.1614998,8.66779094 21.1614998,8.66779094 C21.5860354,8.02115469 21.6865363,6.88689991 21.0291677,6.2282657 C19.3979067,4.55087945 17.1834904,5.96484783 16.2861359,7.09301409 C16.1850986,7.22051479 14.9318781,8.7775633 13.8231499,10.1539261 C13.2623481,9.45786547 12.6740068,8.72742258 12.2226472,8.16745815 C13.0978271,7.08817909 13.9823061,5.99923004 14.1073062,5.84504732 C14.3540877,5.53936798 14.589603,5.21828828 14.8583801,4.93266524 C15.3773365,4.38058006 15.999476,3.91803189 16.677052,3.58137276 C17.3607081,3.24041584 18.1055231,3.02910851 18.8666113,2.96267205 Z M12.0011698,0 C12.5423006,0 12.9847189,0.150243094 12.9988463,0.336659139 L12.9988463,0.336659139 L12.9988463,1.89281229 L14.5521387,1.89281229 C14.7404437,1.90767543 14.8874396,2.34873472 14.8874396,2.89114989 C14.8874396,3.43517673 14.7404437,3.87659417 14.5521387,3.89074102 L14.5521387,3.89074102 L14.5521387,3.89217361 L12.9988463,3.89217361 L12.9988463,5.49793026 C12.9847189,5.68577889 12.5423006,5.83512662 12.0011698,5.83512662 C11.4577141,5.83512662 11.0176206,5.68577889 11.0036721,5.49793026 L11.0036721,5.49793026 L11.0022414,5.49793026 L11.0022414,3.89217361 L9.44912786,3.89217361 C9.26243234,3.87659417 9.11257521,3.43517673 9.11257521,2.89114989 C9.11257521,2.34873472 9.26243234,1.90767543 9.44912786,1.8940658 L9.44912786,1.8940658 L9.44912786,1.89281229 L11.0022414,1.89281229 L11.0022414,0.336659139 C11.0176206,0.150243094 11.4577141,0 12.0011698,0 Z" id="形状结合" fill="#FFFFFF"></path>
    </g>
</svg>